<svg id="svg" xmlns="http://www.w3.org/2000/svg" xmlns:xlink="http://www.w3.org/1999/xlink" width="400" height="100" viewBox="0, 0, 400,100"><g id="svgg"><path id="path0" d="M63.750 16.754 C 54.215 18.513,52.630 19.195,51.051 22.220 C 49.490 25.211,49.233 25.138,57.234 23.966 C 61.041 23.409,65.246 23.020,66.579 23.102 L 69.002 23.250 65.777 28.615 C 58.478 40.755,54.417 46.107,52.750 45.784 C 43.247 43.938,27.970 45.128,21.189 48.241 C 1.741 57.170,-2.995 72.589,12.142 77.693 C 23.349 81.472,36.433 75.454,51.689 59.505 L 56.628 54.341 67.787 54.103 L 78.947 53.864 79.198 55.057 C 79.336 55.713,79.656 60.476,79.908 65.642 C 80.449 76.723,79.990 75.890,84.562 74.077 C 86.590 73.272,89.938 72.117,92.000 71.510 C 96.882 70.074,96.706 70.416,95.530 64.646 C 94.969 61.894,93.395 51.852,92.033 42.331 C 88.938 20.704,88.083 18.454,82.304 16.738 C 79.217 15.821,68.757 15.830,63.750 16.754 M347.243 16.964 C 342.493 17.801,331.752 20.688,330.696 21.412 C 330.121 21.806,324.237 31.300,323.700 32.700 C 323.377 33.542,323.500 33.608,324.793 33.279 C 327.648 32.553,337.794 30.607,340.402 30.285 L 343.053 29.959 342.779 31.604 C 342.629 32.509,341.933 37.750,341.234 43.250 C 338.428 65.324,338.168 66.000,332.487 66.000 C 326.691 66.000,315.837 57.928,310.700 49.797 C 308.834 46.843,308.760 46.870,307.792 50.875 C 305.555 60.124,305.406 62.347,306.832 65.172 C 309.725 70.899,313.839 75.853,317.105 77.541 C 324.800 81.518,340.785 71.096,344.202 59.875 C 344.820 57.845,358.411 58.865,364.064 61.366 C 367.853 63.042,373.000 68.725,373.000 71.233 C 373.000 71.380,371.208 71.500,369.019 71.500 C 362.440 71.500,355.990 68.468,354.169 64.519 C 352.961 61.899,353.152 61.756,350.000 67.628 C 347.161 72.917,347.043 73.446,347.957 76.839 C 349.102 81.092,364.236 83.100,370.458 79.824 C 379.953 74.826,385.508 60.988,380.231 55.480 C 377.608 52.743,368.893 50.000,362.816 50.000 L 359.292 50.000 363.771 47.442 C 378.083 39.270,385.857 29.508,382.785 23.567 C 379.538 17.289,362.922 14.202,347.243 16.964 M158.446 18.770 L 153.142 20.505 152.816 40.627 C 152.636 51.695,152.359 61.553,152.200 62.534 L 151.912 64.318 156.331 63.692 C 158.761 63.348,161.706 63.051,162.875 63.033 L 165.000 63.000 165.000 53.470 L 165.000 43.940 166.682 41.737 L 168.364 39.534 169.404 43.142 C 171.389 50.032,171.572 53.027,170.539 61.780 C 170.022 66.163,169.661 69.815,169.736 69.895 C 169.908 70.076,178.255 64.460,180.134 62.899 C 181.604 61.678,181.582 61.796,182.808 48.250 C 183.465 40.978,181.809 37.314,176.791 34.939 C 171.455 32.414,170.839 32.456,167.644 35.561 L 164.878 38.250 165.197 27.625 C 165.571 15.208,166.322 16.194,158.446 18.770 M141.000 28.616 C 139.213 28.820,136.794 29.117,135.625 29.274 L 133.500 29.561 133.500 32.419 C 133.500 33.991,133.204 35.721,132.842 36.264 C 132.479 36.806,131.550 38.352,130.777 39.699 L 129.371 42.148 131.335 41.834 L 133.300 41.520 132.926 44.885 C 131.872 54.362,132.732 58.533,136.302 61.256 C 138.364 62.829,144.155 65.285,144.360 64.673 C 144.438 64.440,145.846 62.232,147.489 59.765 L 150.475 55.280 148.393 54.265 C 144.898 52.562,144.250 51.205,144.250 45.590 L 144.250 40.750 147.565 40.604 L 150.879 40.457 151.203 38.354 C 151.381 37.197,151.658 35.519,151.819 34.625 L 152.111 33.000 148.332 33.000 L 144.552 33.000 144.401 30.622 L 144.250 28.244 141.000 28.616 M76.409 36.625 C 78.464 47.288,78.795 50.000,78.038 50.000 C 77.559 50.000,67.362 48.150,62.606 47.200 C 61.498 46.979,61.534 46.873,63.733 43.861 C 64.982 42.150,67.859 37.997,70.127 34.632 C 72.395 31.267,74.383 28.510,74.546 28.507 C 74.709 28.503,75.547 32.156,76.409 36.625 M369.826 30.442 C 371.242 31.068,372.895 32.106,373.498 32.748 L 374.594 33.915 373.422 34.655 C 372.778 35.061,369.800 36.896,366.806 38.732 C 363.811 40.567,357.889 44.326,353.646 47.083 C 349.403 49.841,345.869 52.019,345.794 51.924 C 345.718 51.828,346.576 46.754,347.700 40.648 L 349.743 29.545 351.247 29.327 C 355.983 28.639,367.282 29.317,369.826 30.442 M114.250 34.720 L 110.750 36.981 110.596 34.990 C 110.409 32.566,110.604 32.569,103.597 34.875 L 97.899 36.750 98.199 38.945 C 98.365 40.152,98.500 46.380,98.500 52.785 L 98.500 64.430 99.992 64.002 C 100.813 63.767,103.623 63.305,106.238 62.976 L 110.991 62.378 110.666 52.674 L 110.341 42.971 111.764 41.486 C 113.658 39.508,113.753 39.548,115.041 42.875 C 116.459 46.537,116.561 54.143,115.281 60.855 C 114.095 67.079,113.965 67.036,120.796 62.676 L 126.832 58.823 127.541 52.036 C 129.131 36.821,127.852 33.361,120.396 32.696 C 117.927 32.476,117.516 32.611,114.250 34.720 M235.750 34.720 L 232.250 36.981 232.096 34.990 C 231.909 32.566,232.104 32.569,225.097 34.875 L 219.399 36.750 219.699 38.945 C 219.865 40.152,220.000 46.380,220.000 52.785 L 220.000 64.430 221.492 64.002 C 222.313 63.767,225.123 63.305,227.738 62.976 L 232.491 62.378 232.166 52.674 L 231.841 42.971 233.264 41.486 C 235.158 39.508,235.253 39.548,236.541 42.875 C 237.959 46.537,238.061 54.143,236.781 60.855 C 235.595 67.079,235.465 67.036,242.296 62.676 L 248.332 58.823 249.041 52.036 C 250.631 36.821,249.352 33.361,241.896 32.696 C 239.427 32.476,239.016 32.611,235.750 34.720 M261.250 33.779 C 259.600 34.144,256.956 34.584,255.375 34.757 L 252.500 35.072 252.500 38.948 C 252.500 45.430,253.546 61.221,254.006 61.695 C 254.244 61.939,255.521 62.414,256.843 62.749 L 259.246 63.360 260.186 61.805 C 261.687 59.320,268.192 51.313,268.310 51.804 C 268.947 54.443,268.799 69.000,268.135 69.000 C 265.794 69.000,258.314 66.779,257.037 65.705 C 255.038 64.022,254.796 64.119,252.479 67.530 L 250.421 70.561 251.333 73.095 C 252.744 77.020,258.238 79.780,266.927 80.929 L 270.103 81.349 273.524 77.332 C 279.395 70.437,279.814 69.241,281.263 55.250 C 281.946 48.650,282.764 41.391,283.079 39.118 C 283.777 34.100,284.435 34.644,277.147 34.218 L 271.054 33.861 270.727 35.306 C 269.743 39.651,269.259 41.062,267.659 44.250 C 265.255 49.042,264.857 49.324,265.191 46.000 C 265.344 44.487,265.606 40.944,265.774 38.125 C 266.124 32.274,266.487 32.623,261.250 33.779 M193.700 36.458 C 183.622 44.811,182.321 54.971,190.601 60.667 C 195.474 64.021,202.830 65.686,204.863 63.896 C 205.351 63.466,206.988 62.494,208.500 61.736 C 218.097 56.927,221.298 44.977,214.691 38.623 C 212.568 36.583,212.510 36.449,213.248 35.323 L 214.017 34.150 209.884 33.828 C 207.610 33.651,203.838 33.508,201.500 33.511 L 197.250 33.515 193.700 36.458 M202.885 41.822 C 205.841 44.071,206.250 45.165,206.250 50.813 C 206.250 56.809,206.195 56.901,203.284 55.790 C 199.087 54.187,196.679 50.093,197.126 45.319 C 197.651 39.720,199.026 38.885,202.885 41.822 M386.219 54.578 C 385.377 57.148,384.510 59.641,384.293 60.118 C 382.826 63.343,394.115 63.335,396.219 60.110 C 399.996 54.321,398.193 50.946,390.940 50.224 L 387.750 49.906 386.219 54.578 M45.926 57.600 C 44.179 59.579,40.806 63.236,38.430 65.725 L 34.109 70.250 29.123 70.420 C 19.747 70.739,16.000 66.475,19.113 59.033 C 20.514 55.683,20.284 55.754,32.121 55.031 C 37.142 54.724,42.263 54.406,43.500 54.324 C 44.737 54.242,46.504 54.135,47.426 54.087 L 49.103 54.000 45.926 57.600 " stroke="none" fill="#000000" fill-rule="evenodd"></path></g></svg>